<?xml version="1.0" standalone="no"?>
<!DOCTYPE svg PUBLIC "-//W3C//DTD SVG 20010904//EN"
 "http://www.w3.org/TR/2001/REC-SVG-20010904/DTD/svg10.dtd">
<svg version="1.0" xmlns="http://www.w3.org/2000/svg"
 width="4137.000000pt" height="4137.000000pt" viewBox="0 0 4137.000000 4137.000000"
 preserveAspectRatio="xMidYMid meet">
<metadata>
Created by potrace 1.14, written by Peter Selinger 2001-2017
</metadata>
<g transform="translate(0.000000,4137.000000) scale(0.100000,-0.100000)"
fill="#000000" stroke="none">
<path d="M21109 31616 c-2 -3 -31 -7 -64 -10 -87 -8 -89 -9 -117 -38 -39 -38
-45 -75 -42 -285 2 -220 0 -226 -78 -224 -126 2 -1446 1 -1460 -2 -27 -5 -78
-46 -78 -62 0 -8 -4 -15 -8 -15 -12 0 -14 -38 -13 -250 0 -145 -3 -188 -14
-200 -12 -13 -72 -15 -482 -15 -257 1 -483 -3 -502 -8 -40 -10 -72 -41 -87
-82 -6 -19 -10 -107 -9 -227 2 -232 1 -234 -78 -231 -145 5 -1398 4 -1436 -1
-24 -4 -50 -11 -56 -16 -7 -5 -16 -6 -20 -2 -5 4 -5 1 -1 -5 5 -8 1 -13 -10
-13 -10 0 -14 -3 -11 -7 4 -3 1 -13 -5 -21 -19 -22 -20 -34 -22 -249 -1 -151
-4 -205 -14 -215 -10 -10 -161 -13 -760 -14 -411 -1 -758 -4 -771 -8 -40 -9
-75 -49 -88 -99 -7 -27 -7 -323 0 -357 5 -28 -15 -75 -35 -82 -7 -2 -224 -3
-481 -2 -624 2 -581 25 -581 -307 -1 -243 -3 -248 -84 -242 -98 7 -344 8 -349
1 -2 -5 -13 -8 -24 -8 -29 0 -77 -54 -85 -97 -7 -34 -8 -793 -2 -903 2 -31 -2
-51 -14 -64 -17 -18 -32 -20 -220 -18 -168 1 -209 -2 -238 -15 -19 -9 -39 -15
-43 -14 -5 1 -6 -3 -3 -8 4 -5 1 -15 -6 -23 -7 -7 -15 -20 -18 -28 -2 -8 -5
-229 -5 -490 -1 -329 -5 -481 -13 -496 -11 -20 -17 -21 -209 -19 -109 1 -212
-2 -229 -7 -33 -9 -76 -45 -83 -69 -13 -48 -17 -112 -14 -254 1 -88 1 -169 -2
-181 -6 -26 -42 -43 -86 -39 -60 6 -313 5 -349 -1 -19 -3 -36 -10 -38 -15 -2
-5 -8 -9 -13 -9 -11 0 -43 -33 -46 -46 0 -5 -4 -27 -8 -49 -8 -49 -9 -776 -1
-861 5 -52 3 -65 -14 -87 l-20 -26 -168 5 c-212 7 -262 1 -300 -34 -17 -15
-34 -38 -38 -52 -5 -14 -8 -240 -9 -502 0 -459 -1 -478 -19 -491 -15 -11 -60
-14 -215 -12 -112 1 -201 -2 -208 -7 -7 -5 -17 -7 -23 -3 -5 3 -10 1 -10 -4 0
-6 -6 -11 -14 -11 -8 0 -24 -20 -36 -46 -21 -42 -22 -58 -20 -222 1 -97 1
-188 1 -202 -1 -40 -31 -57 -93 -54 -85 5 -829 5 -873 0 -36 -4 -114 -35 -90
-36 6 0 2 -5 -8 -11 -9 -6 -15 -14 -12 -20 4 -5 2 -9 -2 -9 -5 0 -10 -15 -12
-32 -3 -27 -3 -263 -1 -372 2 -44 -30 -70 -82 -67 -58 4 -844 4 -888 0 -19 -1
-41 -7 -47 -12 -7 -5 -13 -6 -13 -3 0 4 -11 -4 -24 -16 -13 -13 -21 -26 -19
-30 2 -5 0 -8 -5 -8 -12 0 -12 -7 -15 -235 -1 -131 -6 -207 -14 -220 -11 -19
-23 -20 -220 -21 -114 -1 -217 -3 -227 -5 -19 -4 -76 -51 -70 -58 2 -2 -2 -13
-8 -24 -10 -19 -15 -243 -8 -357 2 -25 0 -54 -4 -66 -8 -27 -47 -44 -83 -37
-37 7 -850 7 -886 0 -47 -10 -87 -31 -93 -49 -3 -10 -9 -18 -13 -18 -11 0 -14
-54 -13 -257 1 -164 -2 -193 -15 -205 -13 -10 -115 -13 -506 -13 -383 0 -491
-3 -495 -13 -2 -7 -8 -10 -13 -6 -5 3 -9 0 -9 -5 0 -6 -7 -11 -15 -11 -8 0
-14 -3 -13 -7 0 -5 -6 -23 -14 -41 -11 -26 -14 -75 -13 -233 1 -182 0 -201
-17 -216 -17 -15 -45 -17 -220 -16 -111 1 -207 -1 -212 -5 -6 -3 -17 -7 -25
-8 -26 -5 -56 -49 -66 -101 -6 -30 -10 -132 -8 -227 2 -162 1 -175 -18 -192
-13 -12 -32 -16 -62 -15 -131 8 -354 3 -382 -9 -16 -7 -33 -13 -37 -12 -5 1
-8 -5 -8 -13 0 -8 -4 -15 -9 -15 -27 0 -37 -145 -27 -380 2 -62 -6 -98 -26
-111 -5 -3 -102 -5 -214 -4 -116 1 -204 -2 -204 -7 0 -5 -3 -7 -8 -5 -4 3 -23
-3 -42 -14 -19 -10 -32 -18 -28 -19 3 0 -1 -16 -11 -35 -14 -30 -17 -66 -16
-234 1 -140 -3 -204 -11 -216 -13 -18 -14 -18 -234 -17 -138 1 -204 -1 -220
-8 -3 -1 -8 -2 -11 -2 -13 1 -64 -72 -66 -96 -4 -37 -4 -329 0 -370 6 -62 -10
-67 -232 -69 -216 -1 -230 -2 -249 -20 -7 -7 -20 -13 -28 -13 -8 0 -12 -4 -9
-10 3 -5 2 -10 -3 -10 -24 0 -29 -101 -28 -544 1 -544 11 -500 -107 -497 -274
7 -357 2 -383 -24 -9 -8 -19 -15 -24 -15 -9 0 -15 -16 -27 -62 -7 -30 -7 -985
0 -1018 3 -14 6 -28 6 -31 2 -13 49 -57 55 -52 3 4 6 1 6 -6 0 -7 7 -11 15 -8
8 4 17 2 20 -2 2 -5 95 -8 206 -6 182 2 202 1 217 -15 15 -17 17 -61 16 -495
-1 -261 3 -478 8 -481 4 -3 6 -9 3 -13 -2 -5 6 -20 20 -35 13 -14 21 -26 17
-27 -4 0 9 -6 28 -14 25 -9 92 -13 238 -12 226 1 233 -1 233 -64 0 -19 0 -104
-1 -189 -3 -233 7 -262 100 -288 8 -2 351 -5 762 -6 857 -1 782 8 778 -97 -3
-113 -2 -303 3 -334 3 -16 5 -33 6 -38 0 -4 14 -20 29 -37 21 -21 42 -31 78
-36 49 -7 5850 -9 5911 -2 17 2 38 9 45 16 8 6 18 9 21 5 4 -3 7 1 7 10 0 10
4 17 9 17 9 0 20 23 28 60 3 13 3 234 0 362 0 22 7 45 16 56 15 17 44 18 465
17 355 0 453 -3 465 -13 13 -11 16 -43 15 -210 0 -108 2 -206 5 -218 6 -25 47
-93 47 -79 0 6 4 5 8 -1 4 -7 25 -15 47 -19 41 -8 247 -9 345 -2 43 2 59 -1
75 -15 18 -17 19 -33 20 -232 0 -154 3 -217 12 -228 7 -8 10 -18 6 -21 -3 -4
1 -7 11 -7 11 0 15 -5 10 -12 -4 -7 -3 -10 1 -5 5 4 17 -1 28 -10 17 -16 44
-18 234 -18 214 -1 215 -1 233 -25 13 -17 16 -35 13 -74 -7 -80 -6 -297 2
-343 4 -24 12 -43 18 -43 6 0 7 -3 4 -7 -4 -3 12 -18 35 -32 42 -25 46 -25
250 -26 156 0 210 -3 220 -13 10 -10 13 -64 13 -220 1 -193 2 -210 23 -249 15
-29 30 -43 49 -47 16 -4 39 -9 53 -12 26 -6 264 -6 338 0 30 2 49 -2 65 -14
21 -17 21 -23 19 -213 -2 -205 4 -246 42 -283 37 -36 74 -41 276 -38 182 2
196 1 216 -18 18 -16 21 -27 17 -61 -5 -40 -5 -316 -1 -364 1 -13 6 -23 11
-23 4 0 5 -4 2 -10 -3 -5 -1 -10 4 -10 6 0 11 -7 11 -16 0 -8 4 -13 9 -10 5 3
11 -1 14 -8 3 -8 27 -18 54 -22 41 -6 715 -10 858 -4 82 3 93 1 113 -21 14
-14 19 -31 16 -57 -5 -62 -5 -315 0 -350 7 -45 35 -89 65 -102 50 -20 171 -26
356 -16 87 5 108 -3 123 -45 5 -13 6 -35 3 -49 -7 -25 -6 -323 1 -350 5 -21
29 -62 42 -75 28 -26 79 -31 268 -29 172 2 199 0 215 -14 16 -15 18 -36 18
-217 0 -110 4 -212 7 -226 11 -39 39 -66 83 -78 29 -8 1160 -11 4070 -10 2217
0 4039 1 4050 3 11 1 30 8 43 15 23 12 66 51 57 51 -2 0 0 12 6 27 11 28 13
338 3 378 -7 30 32 75 66 75 14 0 107 -1 208 -3 107 -1 182 2 182 7 0 5 3 7 6
3 4 -3 12 -1 19 6 7 7 22 18 33 26 31 22 36 56 36 278 1 242 -4 231 120 227
45 -1 83 -3 86 -4 9 -3 184 0 210 4 14 2 32 4 42 5 25 2 83 63 86 91 3 27 4
341 1 375 -5 61 20 79 106 75 121 -4 305 -2 340 4 40 8 66 30 89 74 13 24 15
68 14 231 -2 172 0 204 14 220 15 18 31 19 210 16 208 -2 241 2 281 39 36 34
40 63 40 286 0 229 0 229 96 224 156 -8 322 -5 371 7 18 5 70 57 71 73 0 6 3
20 5 31 5 22 6 290 1 345 -4 44 10 78 36 86 10 3 45 5 76 4 139 -5 840 -3 874
3 55 10 75 27 95 79 15 41 17 77 15 242 -2 191 -2 194 20 208 17 11 66 13 217
12 135 -1 199 2 209 9 8 7 15 10 15 8 1 -2 11 -1 23 3 25 8 57 67 59 109 1 15
2 30 3 35 3 9 1 211 -2 287 -3 51 0 63 19 81 18 17 31 21 71 17 74 -7 283 -7
329 0 55 8 92 26 99 49 4 10 10 18 14 18 11 0 11 11 14 235 2 132 7 207 14
221 12 21 18 21 190 19 195 -3 275 7 302 34 41 41 44 76 43 531 -1 239 -3 446
-6 459 -4 17 3 31 25 52 17 16 35 26 41 23 21 -13 352 -10 392 4 50 17 83 55
88 101 3 20 4 733 4 1586 -1 1475 0 1550 17 1565 15 12 54 15 225 15 230 0
250 5 288 69 18 30 18 76 19 1026 1 547 -2 1002 -6 1010 -4 9 -1 30 8 48 15
31 36 39 83 33 36 -5 868 -3 893 2 51 11 62 17 87 53 24 37 25 40 25 251 0
189 2 216 17 227 13 9 130 12 490 11 360 -1 479 2 497 11 14 7 29 10 34 7 6
-3 8 -2 5 3 -8 12 18 35 28 26 5 -4 6 -3 1 2 -4 5 -1 19 7 31 11 17 14 67 14
229 -1 175 1 210 15 223 13 13 73 15 492 14 373 -1 481 1 493 11 8 7 16 12 16
10 1 -2 9 0 19 4 20 7 46 53 54 93 6 32 6 243 1 327 -6 91 19 115 115 104 50
-5 265 -3 317 3 14 1 31 6 38 10 6 5 12 5 12 2 0 -13 33 27 49 61 15 29 17 65
16 227 -1 106 3 202 8 214 5 12 19 23 31 26 11 2 106 4 209 2 136 -1 195 2
212 11 14 7 25 10 25 7 0 -7 50 49 51 57 0 3 3 14 5 25 8 29 10 247 4 328 -5
63 -3 74 17 97 18 22 29 26 60 24 47 -5 882 -6 903 -2 41 9 79 32 90 56 7 15
16 34 20 42 4 8 6 105 5 215 -3 178 -1 202 14 216 15 14 44 16 207 15 104 -2
206 2 227 7 33 8 89 51 78 59 -2 2 1 14 9 27 12 22 13 78 8 381 0 64 22 79
109 74 97 -6 250 -6 306 0 43 4 123 43 111 55 -2 2 2 11 9 19 9 12 12 128 13
496 0 334 3 487 11 501 11 18 23 20 220 20 114 1 219 5 233 10 25 8 69 52 71
70 0 6 3 21 6 35 6 26 6 2061 0 2095 -4 24 -25 65 -44 83 -7 7 -13 11 -13 9 0
-3 -15 1 -34 7 -23 8 -100 11 -226 10 -179 -2 -193 -1 -208 17 -15 17 -17 49
-17 236 0 164 -3 217 -12 220 -7 3 -13 9 -13 15 0 20 -41 46 -83 54 -46 8
-248 9 -338 1 -44 -3 -60 0 -78 14 -22 18 -23 26 -21 116 2 117 1 282 -3 303
-1 8 -6 21 -11 28 -4 7 -6 16 -3 19 9 9 -36 47 -69 59 -20 7 -185 10 -503 10
l-473 -1 -19 23 c-14 18 -17 36 -14 80 5 70 6 288 1 322 -5 33 -27 80 -38 80
-5 0 -7 4 -4 9 3 4 -13 14 -36 22 -35 11 -553 13 -3248 13 -1763 0 -3224 -3
-3248 -7 -57 -9 -97 -49 -107 -108 -9 -48 -9 -309 0 -357 3 -20 -1 -37 -13
-52 l-18 -23 -1544 0 c-1517 0 -1544 0 -1559 20 -14 16 -16 50 -14 222 2 228
-3 248 -68 285 -32 18 -56 19 -444 20 -225 1 -438 -1 -472 -4 -49 -4 -67 -2
-85 12 -23 16 -23 21 -24 220 -2 205 -3 223 -17 246 -5 6 -5 12 0 12 26 0 -74
54 -105 56 -53 4 -1368 4 -1422 0 -31 -2 -53 2 -70 14 l-25 18 1 203 c1 112
-2 214 -7 225 -13 36 -52 71 -89 81 -20 5 -346 9 -774 9 l-738 -1 -17 22 c-13
15 -17 36 -15 70 5 68 4 292 -1 328 -6 50 -9 58 -31 81 -42 44 -71 47 -533 45
-240 -1 -449 -2 -466 -3 -57 -1 -61 17 -59 238 1 154 -2 205 -13 227 -7 15
-10 27 -6 27 4 0 -9 11 -30 25 -26 18 -55 27 -99 31 -34 3 -65 7 -70 10 -4 3
-8 2 -8 -3 0 -10 -213 -11 -221 0 -3 4 -7 5 -10 3z"/>
</g>
</svg>
